<?xml version="1.0" encoding="UTF-8" standalone="no"?> <svg xmlns="http://www.w3.org/2000/svg" viewBox="0 0 64 64"><defs><style>.cls-1{fill:#fff;}.cls-1,.cls-4,.cls-5{stroke:#54596e;stroke-linecap:round;stroke-linejoin:round;stroke-width:2px;}.cls-2,.cls-3{fill:#54596e;}.cls-2{opacity:0.2;}.cls-4{fill:#9af43b;}.cls-5{fill:none;}</style></defs><title>cloud-settings</title><g id="cloud-settings"><path class="cls-1" d="M51.46,28.1c0-.28,0-.56,0-.85a15.24,15.24,0,0,0-30-3.63A7,7,0,0,0,9.09,29.06,12,12,0,0,0,14,52H50a12,12,0,0,0,1.46-23.9Z"/><path class="cls-2" d="M50,46H14A12,12,0,0,1,2.39,37,12,12,0,0,0,14,52H50A12,12,0,0,0,61.61,37,12,12,0,0,1,50,46Z"/><circle class="cls-3" cx="16" cy="28" r="2"/><circle class="cls-3" cx="44" cy="28" r="2"/><path class="cls-4" d="M36,38h-.29a7,7,0,0,0-.55-1.33l.21-.21a2,2,0,0,0-2.83-2.83l-.21.21A6.93,6.93,0,0,0,31,33.29V33a2,2,0,0,0-4,0v.29a6.93,6.93,0,0,0-1.33.55l-.21-.21a2,2,0,1,0-2.83,2.83l.21.21A7,7,0,0,0,22.29,38H22a2,2,0,0,0,0,4h.29a7,7,0,0,0,.55,1.33l-.21.21a2,2,0,1,0,2.83,2.83l.21-.21a6.93,6.93,0,0,0,1.33.55V47a2,2,0,0,0,4,0v-.29a6.93,6.93,0,0,0,1.33-.55l.21.21a2,2,0,0,0,2.83-2.83l-.21-.21A7,7,0,0,0,35.71,42H36a2,2,0,0,0,0-4Zm-7,5a3,3,0,1,1,3-3A3,3,0,0,1,29,43Z"/><line class="cls-5" x1="38" y1="41" x2="44" y2="41"/><line class="cls-5" x1="14" y1="41" x2="20" y2="41"/></g></svg>